# xmcd
#
# Track frame offsets:
#	150
#	17250
#	29927
#	43737
#	58737
#	76207
#	92342
#	102212
#	114757
#	131855
#	142885
#	166070
#	188632
#	215950
#	236415
#	253575
#	271160
#	286957
#
# Disc length: 4060 seconds
# Revision: 0
# Processed by: cddbd v1.5.2PL0 Copyright (c) Steve Scherf et al.
# Submitted via: dBpowerAMP V12.0
#
DISCID=f20fda12
DTITLE=Various Artist - THE WORLD POP BEST VOL 1
DYEAR=1900
DGENRE=Pop
TTITLE0=Debby Boon - You Light up My Life
TTITLE1=Beatles - Yesterday
TTITLE2=Debby Boon - When a Man Loves a Woman
TTITLE3=Percy Stedge - The Way We Were
TTITLE4=Babra Streisand - Beatles - Let it be
TTITLE5=Debby Boon - Torn between two Lovers
TTITLE6=Mary McGregor - Every Brothers - bye bye Love
TTITLE7=Brian Hyland - Sealed with a Kiss
TTITLE8=Beatles - Come Together
TTITLE9=Kris Kristofferson - Kris Kristofferson - Help Me make it Through the Night
TTITLE10=Mary Hopkins - Those Were the days
TTITLE11=Beatles - Hey Jude
TTITLE12=Queen - Bohemian Rhapsody
TTITLE13=Simon and Garfunkel - Bridge over Troubled Water
TTITLE14=Fox. Roberta Flack - Killing Me softly with His Song
TTITLE15=Elton John - Sorry seems to be The Hardest Word
TTITLE16=Mr.Big - Wild World
TTITLE17=Billy Joel - Honesty
EXTD=
EXTT0=
EXTT1=
EXTT2=
EXTT3=
EXTT4=
EXTT5=
EXTT6=
EXTT7=
EXTT8=
EXTT9=
EXTT10=
EXTT11=
EXTT12=
EXTT13=
EXTT14=
EXTT15=
EXTT16=
EXTT17=
PLAYORDER=
